<svg width="512" height="512" viewBox="0 0 512 512" fill="none" xmlns="http://www.w3.org/2000/svg">
<path d="M185.25 301.062L189.781 289.812H228.219L232.75 301.062H185.25ZM176.5 323.562L180.875 312.312H236.969L241.812 323.562H176.5ZM167.75 346.062L172.125 334.812H245.875L250.562 346.062H167.75ZM76.3438 377H64.1562L166.5 118.25H178.688L280.875 377H268.844L172.594 133.406L76.3438 377ZM174 160.125L180.406 174.5L100.406 377H88.375L174 160.125ZM186.5 189.812L192.438 205.281L124.781 377H112.594L186.5 189.812ZM198.375 220.75L204.312 236.531L148.844 377H136.812L198.375 220.75ZM353.531 377H341.344L239.156 118.25H251.188L353.531 377ZM226.969 118.25L329.312 377H317.281L214.938 118.25H226.969ZM202.75 118.25L305.094 377H292.906L190.719 118.25H202.75Z" fill="black"/>
<path d="M297.25 301.062L301.781 289.812H340.219L344.75 301.062H297.25ZM288.5 323.562L292.875 312.312H348.969L353.812 323.562H288.5ZM279.75 346.062L284.125 334.812H357.875L362.562 346.062H279.75ZM188.344 377H176.156L278.5 118.25H290.688L392.875 377H380.844L284.594 133.406L188.344 377ZM286 160.125L292.406 174.5L212.406 377H200.375L286 160.125ZM298.5 189.812L304.438 205.281L236.781 377H224.594L298.5 189.812ZM310.375 220.75L316.312 236.531L260.844 377H248.812L310.375 220.75ZM465.531 377H453.344L351.156 118.25H363.188L465.531 377ZM338.969 118.25L441.312 377H429.281L326.938 118.25H338.969ZM314.75 118.25L417.094 377H404.906L302.719 118.25H314.75Z" fill="black" fill-opacity="0.35"/>
</svg>
